<svg width="1206" height="1244" viewBox="0 0 1206 1244" fill="none" xmlns="http://www.w3.org/2000/svg">
<path opacity="0.7" d="M163.847 415.72C163.847 415.72 96.6007 594.831 191.103 775.236C285.581 955.666 480.253 1050.91 636.044 1132.39C791.836 1213.87 953.608 1174.19 1030.48 1040.73C1107.35 907.274 1001.9 812.009 1001.78 621.702C1001.66 431.394 1029.39 381.012 929.512 220.238C829.632 59.4632 584.452 23.8599 399.114 143.11C213.776 262.36 163.847 415.72 163.847 415.72Z" fill="white"/>
<path d="M550.539 127.684C849.724 100.192 850.206 274.302 985.013 436.52C1119.82 598.737 1148.67 672.258 1097.85 859.256C1047.03 1046.23 875.797 1192.82 663.951 1109.77C452.105 1026.72 330.758 1106.49 197.133 1032.72C63.508 958.975 13.8932 816.487 111.7 648.547C209.506 480.607 181.648 161.571 550.539 127.684Z" fill="#92E3A9"/>
<path opacity="0.7" d="M550.539 127.684C849.724 100.192 850.206 274.302 985.013 436.52C1119.82 598.737 1148.67 672.258 1097.85 859.256C1047.03 1046.23 875.797 1192.82 663.951 1109.77C452.105 1026.72 330.758 1106.49 197.133 1032.72C63.508 958.975 13.8932 816.487 111.7 648.547C209.506 480.607 181.648 161.571 550.539 127.684Z" fill="white"/>
<path d="M633.898 214.64L584.693 225.338C578.06 226.781 571.547 222.402 570.148 215.56L559.777 164.805C558.378 157.963 562.623 151.245 569.256 149.802L618.461 139.104C625.094 137.661 631.606 142.04 633.005 148.882L643.377 199.637C644.776 206.479 640.531 213.197 633.898 214.64Z" stroke="#263238" stroke-miterlimit="10" stroke-linecap="round" stroke-linejoin="round"/>
<path d="M598.441 166.82L604.712 197.622" stroke="#263238" stroke-miterlimit="10" stroke-linecap="round" stroke-linejoin="round"/>
<path d="M616.507 178.962L586.646 185.456" stroke="#263238" stroke-miterlimit="10" stroke-linecap="round" stroke-linejoin="round"/>
<path d="M1129.97 757.372L1080.77 768.07C1074.14 769.513 1067.62 765.135 1066.22 758.293L1055.85 707.537C1054.45 700.695 1058.7 693.978 1065.33 692.535L1114.54 681.836C1121.17 680.393 1127.68 684.772 1129.08 691.614L1139.45 742.369C1140.85 749.211 1136.61 755.929 1129.97 757.372Z" stroke="#263238" stroke-miterlimit="10" stroke-linecap="round" stroke-linejoin="round"/>
<path d="M1106 711.742L1089.33 738.115" stroke="#263238" stroke-miterlimit="10" stroke-linecap="round" stroke-linejoin="round"/>
<path d="M1110.44 733.537L1084.87 716.32" stroke="#263238" stroke-miterlimit="10" stroke-linecap="round" stroke-linejoin="round"/>
<path d="M447.354 1086.61L397.136 1083.62C390.358 1083.23 385.196 1077.23 385.582 1070.24L388.477 1018.44C388.863 1011.45 394.676 1006.12 401.453 1006.52L451.671 1009.51C458.449 1009.9 463.611 1015.9 463.225 1022.89L460.33 1074.69C459.944 1081.66 454.131 1087.01 447.354 1086.61Z" stroke="#263238" stroke-miterlimit="10" stroke-linecap="round" stroke-linejoin="round"/>
<path d="M439.659 1047.47L409.172 1045.66" stroke="#263238" stroke-miterlimit="10" stroke-linecap="round" stroke-linejoin="round"/>
<path d="M126.509 724.506L78.7759 708.184C72.3358 705.995 68.8384 698.829 70.9851 692.186L86.8078 642.949C88.9304 636.306 95.8769 632.698 102.317 634.913L150.05 651.234C156.491 653.423 159.988 660.589 157.841 667.232L142.019 716.469C139.896 723.112 132.949 726.72 126.509 724.506Z" stroke="#263238" stroke-miterlimit="10" stroke-linecap="round" stroke-linejoin="round"/>
<path d="M133.504 669.819L95.3221 689.599" stroke="#263238" stroke-miterlimit="10" stroke-linecap="round" stroke-linejoin="round"/>
<path d="M111.603 661.684C112.93 664.396 111.868 667.705 109.239 669.073C106.61 670.441 103.402 669.347 102.076 666.635C100.749 663.923 101.81 660.614 104.44 659.245C107.069 657.877 110.277 658.972 111.603 661.684Z" stroke="#263238" stroke-miterlimit="10" stroke-linecap="round" stroke-linejoin="round"/>
<path d="M126.75 692.808C128.077 695.52 127.016 698.829 124.387 700.198C121.758 701.566 118.55 700.472 117.223 697.76C115.896 695.048 116.958 691.739 119.587 690.37C122.216 689.002 125.424 690.097 126.75 692.808Z" stroke="#263238" stroke-miterlimit="10" stroke-linecap="round" stroke-linejoin="round"/>
<path d="M621.572 997.166C607.631 1017.99 579.941 1023.19 559.753 1008.81C551.962 1003.24 546.439 995.573 543.351 987.064C538.503 973.505 539.902 957.805 548.465 945.017C554.446 936.11 562.937 930.064 572.271 927.203C584.765 923.322 598.755 925.163 610.308 933.398C630.497 947.779 635.538 976.341 621.572 997.166Z" fill="#92E3A9"/>
<mask id="mask0_4_8" style="mask-type:luminance" maskUnits="userSpaceOnUse" x="540" y="925" width="90" height="92">
<path d="M621.572 997.166C607.631 1017.99 579.941 1023.19 559.753 1008.81C551.962 1003.24 546.439 995.573 543.351 987.064C538.503 973.505 539.902 957.805 548.465 945.017C554.446 936.11 562.937 930.064 572.271 927.203C584.765 923.322 598.755 925.163 610.308 933.398C630.497 947.779 635.538 976.341 621.572 997.166Z" fill="white"/>
</mask>
<g mask="url(#mask0_4_8)">
<path opacity="0.3" d="M615.783 993.035C604.037 1010.55 580.761 1014.93 563.757 1002.81C546.752 990.697 542.531 966.688 554.277 949.147C566.024 931.632 589.3 927.253 606.304 939.369C623.285 951.486 627.53 975.495 615.783 993.035Z" fill="black" fill-opacity="0.7"/>
</g>
<mask id="mask1_4_8" style="mask-type:luminance" maskUnits="userSpaceOnUse" x="540" y="925" width="90" height="92">
<path d="M621.572 997.166C607.631 1017.99 579.941 1023.19 559.753 1008.81C551.962 1003.24 546.439 995.573 543.351 987.064C538.503 973.505 539.902 957.805 548.465 945.017C554.446 936.11 562.937 930.064 572.271 927.203C584.765 923.322 598.755 925.163 610.308 933.398C630.497 947.779 635.538 976.341 621.572 997.166Z" fill="white"/>
</mask>
<g mask="url(#mask1_4_8)">
<path d="M615.783 993.035C604.037 1010.55 580.761 1014.93 563.757 1002.81C546.752 990.697 542.531 966.688 554.277 949.147C566.024 931.632 589.3 927.253 606.304 939.369C623.285 951.486 627.53 975.495 615.783 993.035Z" stroke="#263238" stroke-miterlimit="10" stroke-linecap="round" stroke-linejoin="round"/>
</g>
<mask id="mask2_4_8" style="mask-type:luminance" maskUnits="userSpaceOnUse" x="540" y="925" width="90" height="92">
<path d="M621.572 997.166C607.631 1017.99 579.941 1023.19 559.753 1008.81C551.962 1003.24 546.439 995.573 543.351 987.064C538.503 973.505 539.902 957.805 548.465 945.017C554.446 936.11 562.937 930.064 572.271 927.203C584.765 923.322 598.755 925.163 610.308 933.398C630.497 947.779 635.538 976.341 621.572 997.166Z" fill="white"/>
</mask>
<g mask="url(#mask2_4_8)">
<path d="M594.606 951.834L596.391 949.147L600.878 952.357L599.093 955.044C602.445 958.651 602.349 963.155 599.093 968.031L598.321 969.176L593.135 965.468L594.124 963.976C595.861 961.413 595.499 959.721 593.762 958.477C592.025 957.233 590.361 957.507 588.649 960.069C586.936 962.632 586.719 965.145 588.383 970.818C590.385 977.734 590.048 981.665 587.274 985.77C583.994 990.647 579.845 992.339 575.407 990.373L573.646 993.011L569.16 989.801L570.92 987.164C567.52 983.531 567.64 978.978 570.92 974.077L572.585 971.614L577.771 975.321L575.865 978.157C574.128 980.72 574.611 982.437 576.372 983.681C578.108 984.925 579.845 984.775 581.557 982.213C583.27 979.65 583.535 977.087 581.823 971.464C579.773 964.598 580.158 960.617 582.932 956.512C586.164 951.685 590.192 949.968 594.606 951.834Z" fill="#92E3A9" stroke="#263238" stroke-miterlimit="10" stroke-linecap="round" stroke-linejoin="round"/>
</g>
<mask id="mask3_4_8" style="mask-type:luminance" maskUnits="userSpaceOnUse" x="540" y="925" width="90" height="92">
<path d="M621.572 997.166C607.631 1017.99 579.941 1023.19 559.753 1008.81C551.962 1003.24 546.439 995.573 543.351 987.064C538.503 973.505 539.902 957.805 548.465 945.017C554.446 936.11 562.937 930.064 572.271 927.203C584.765 923.322 598.755 925.163 610.308 933.398C630.497 947.779 635.538 976.341 621.572 997.166Z" fill="white"/>
</mask>
<g mask="url(#mask3_4_8)">
<path opacity="0.2" d="M572.633 933.945C572.633 956.537 560.887 976.291 543.351 987.064C538.503 973.505 539.902 957.805 548.465 945.017C554.446 936.11 562.937 930.064 572.271 927.203C572.512 929.417 572.633 931.657 572.633 933.945Z" fill="black" fill-opacity="0.7"/>
</g>
<path d="M621.572 997.166C607.631 1017.99 579.941 1023.19 559.753 1008.81C551.962 1003.24 546.439 995.573 543.351 987.064C538.503 973.505 539.902 957.805 548.465 945.017C554.446 936.11 562.937 930.064 572.271 927.203C584.765 923.322 598.755 925.163 610.308 933.398C630.497 947.779 635.538 976.341 621.572 997.166Z" stroke="#263238" stroke-miterlimit="10" stroke-linecap="round" stroke-linejoin="round"/>
<path d="M521.571 978.381C546.122 978.381 566.024 957.852 566.024 932.527C566.024 907.203 546.122 886.673 521.571 886.673C497.02 886.673 477.118 907.203 477.118 932.527C477.118 957.852 497.02 978.381 521.571 978.381Z" fill="#92E3A9" stroke="#263238" stroke-miterlimit="10" stroke-linecap="round" stroke-linejoin="round"/>
<path opacity="0.3" d="M521.571 971.091C542.219 971.091 558.957 953.826 558.957 932.527C558.957 911.229 542.219 893.963 521.571 893.963C500.923 893.963 484.185 911.229 484.185 932.527C484.185 953.826 500.923 971.091 521.571 971.091Z" fill="black" fill-opacity="0.7"/>
<path d="M521.571 971.091C542.219 971.091 558.957 953.826 558.957 932.527C558.957 911.229 542.219 893.963 521.571 893.963C500.923 893.963 484.185 911.229 484.185 932.527C484.185 953.826 500.923 971.091 521.571 971.091Z" stroke="#263238" stroke-miterlimit="10" stroke-linecap="round" stroke-linejoin="round"/>
<path d="M518.845 911.056V907.797H524.296V911.056C529.024 912.051 531.46 915.808 531.46 921.754V923.123H525.141V921.306C525.141 918.171 523.935 916.977 521.812 916.977C519.689 916.977 518.483 918.171 518.483 921.306C518.483 924.441 519.689 926.631 524.176 930.313C529.627 934.816 531.508 938.25 531.508 943.251C531.508 949.197 529.024 953.004 524.296 953.999V957.183H518.845V953.999C514.045 953.004 511.633 949.172 511.633 943.251V940.24H517.953V943.674C517.953 946.808 519.279 947.928 521.402 947.928C523.524 947.928 524.851 946.808 524.851 943.674C524.851 940.539 523.645 938.299 519.159 934.667C513.708 930.213 511.826 926.73 511.826 921.704C511.802 915.883 514.166 912.126 518.845 911.056Z" fill="#92E3A9" stroke="#263238" stroke-miterlimit="10" stroke-linecap="round" stroke-linejoin="round"/>
<path d="M771.062 971.021C784.307 949.698 778.286 921.337 757.615 907.674C736.943 894.012 709.448 900.222 696.203 921.545C682.958 942.868 688.978 971.229 709.65 984.892C730.322 998.554 757.817 992.344 771.062 971.021Z" fill="#92E3A9" stroke="#263238" stroke-miterlimit="10" stroke-linecap="round" stroke-linejoin="round"/>
<path opacity="0.3" d="M761.01 920.087C775.072 935.687 774.18 960.094 759.056 974.599C743.933 989.104 720.271 988.184 706.209 972.584C692.147 956.984 693.04 932.577 708.163 918.072C723.31 903.567 746.972 904.463 761.01 920.087Z" fill="black" fill-opacity="0.7"/>
<path d="M761.01 920.087C775.072 935.687 774.18 960.094 759.056 974.599C743.933 989.104 720.271 988.184 706.209 972.584C692.147 956.984 693.04 932.577 708.163 918.072C723.31 903.567 746.972 904.463 761.01 920.087Z" stroke="#263238" stroke-miterlimit="10" stroke-linecap="round" stroke-linejoin="round"/>
<path d="M717.473 932.527L715.327 930.139L719.331 926.307L721.477 928.696C725.602 926.108 729.847 927.153 733.778 931.507L734.695 932.527L730.064 936.956L728.858 935.637C726.784 933.348 725.119 933.323 723.576 934.816C722.032 936.309 721.911 938.026 723.986 940.315C726.06 942.604 728.376 943.35 734.116 942.902C741.087 942.38 744.729 943.574 748.033 947.231C751.965 951.585 752.64 956.138 749.842 960.169L751.941 962.508L747.937 966.339L745.838 964C741.666 966.638 737.372 965.543 733.465 961.189L731.487 959L736.118 954.571L738.385 957.084C740.46 959.373 742.172 959.273 743.716 957.78C745.26 956.288 745.501 954.521 743.451 952.232C741.376 949.943 739.012 949.147 733.32 949.645C726.398 950.217 722.707 948.973 719.403 945.316C715.496 940.987 714.748 936.583 717.473 932.527Z" fill="#92E3A9" stroke="#263238" stroke-miterlimit="10" stroke-linecap="round" stroke-linejoin="round"/>
<path opacity="0.2" d="M715.327 747.022C715.327 747.022 715.134 842.163 715.327 847.711C715.52 853.26 722.491 886.673 722.491 886.673L700.107 929.243L719.379 945.266L756.886 907.224C756.886 907.224 788.82 927.576 794.658 956.686C800.495 985.795 835.252 1006.99 871.311 1087.6C907.37 1168.22 948.495 907.224 948.495 907.224L837.229 762.721L715.327 747.022Z" fill="black" fill-opacity="0.7"/>
<path d="M1055.47 235.887L1021.39 578.933L1000.43 789.965L707.512 759.014L650.517 752.993L614.023 749.137L646.368 423.458L669.065 195.059L1055.47 235.887Z" fill="white"/>
<mask id="mask4_4_8" style="mask-type:luminance" maskUnits="userSpaceOnUse" x="614" y="195" width="442" height="595">
<path d="M1055.47 235.887L1021.39 578.933L1000.43 789.965L707.512 759.014L650.517 752.993L614.023 749.137L646.368 423.458L669.065 195.059L1055.47 235.887Z" fill="white"/>
</mask>
<g mask="url(#mask4_4_8)">
<path d="M943.237 248.7L776.447 231.061C773.311 230.737 770.513 233.076 770.2 236.31C769.886 239.545 772.154 242.431 775.289 242.754L942.079 260.394C945.215 260.718 948.013 258.379 948.326 255.144C948.664 251.91 946.372 249.024 943.237 248.7Z" fill="#263238"/>
</g>
<mask id="mask5_4_8" style="mask-type:luminance" maskUnits="userSpaceOnUse" x="614" y="195" width="442" height="595">
<path d="M1055.47 235.887L1021.39 578.933L1000.43 789.965L707.512 759.014L650.517 752.993L614.023 749.137L646.368 423.458L669.065 195.059L1055.47 235.887Z" fill="white"/>
</mask>
<g mask="url(#mask5_4_8)">
<path d="M899.17 268.331L815.763 259.523C814.195 259.349 812.796 260.543 812.627 262.136C812.458 263.753 813.616 265.196 815.16 265.37L898.567 274.178C900.134 274.352 901.533 273.158 901.702 271.565C901.871 269.923 900.713 268.48 899.17 268.331Z" fill="#263238"/>
</g>
<mask id="mask6_4_8" style="mask-type:luminance" maskUnits="userSpaceOnUse" x="614" y="195" width="442" height="595">
<path d="M1055.47 235.887L1021.39 578.933L1000.43 789.965L707.512 759.014L650.517 752.993L614.023 749.137L646.368 423.458L669.065 195.059L1055.47 235.887Z" fill="white"/>
</mask>
<g mask="url(#mask6_4_8)">
<path d="M990.922 521.51L720.199 492.898C718.631 492.724 717.232 493.918 717.063 495.51C716.895 497.127 718.052 498.57 719.596 498.744L990.319 527.356C991.887 527.531 993.286 526.336 993.455 524.744C993.623 523.152 992.49 521.659 990.922 521.51Z" fill="#263238"/>
<path d="M988.823 542.533L674.033 509.269C672.466 509.095 671.067 510.289 670.898 511.881C670.729 513.498 671.887 514.941 673.43 515.115L988.22 548.38C989.788 548.554 991.187 547.36 991.356 545.768C991.525 544.15 990.391 542.707 988.823 542.533Z" fill="#263238"/>
<path d="M898.591 554.252L671.959 530.292C670.391 530.118 668.992 531.312 668.823 532.905C668.655 534.522 669.812 535.965 671.356 536.139L897.988 560.099C899.555 560.273 900.954 559.078 901.123 557.486C901.292 555.894 900.158 554.401 898.591 554.252Z" fill="#263238"/>
</g>
<mask id="mask7_4_8" style="mask-type:luminance" maskUnits="userSpaceOnUse" x="404" y="341" width="601" height="500">
<path d="M509.258 341.118L815.731 431.973L1004.27 487.859L925.029 755.295L909.612 807.333L899.74 840.653L608.78 754.408L404.733 693.911L509.258 341.118Z" fill="white"/>
</mask>
<g mask="url(#mask7_4_8)">
<path d="M670.92 552.954L659.162 638.465L973.963 679.201L985.721 593.69L670.92 552.954Z" fill="#BFBFBF" stroke="#263238" stroke-miterlimit="10"/>
</g>
<mask id="mask8_4_8" style="mask-type:luminance" maskUnits="userSpaceOnUse" x="614" y="195" width="442" height="595">
<path d="M1055.47 235.887L1021.39 578.933L1000.43 789.965L707.512 759.014L650.517 752.993L614.023 749.137L646.368 423.458L669.065 195.059L1055.47 235.887Z" fill="white"/>
</mask>
<g mask="url(#mask8_4_8)">
<path d="M813.915 445.694C843.892 419.932 847.947 373.981 822.972 343.059C797.997 312.138 753.45 307.955 723.473 333.717C693.496 359.479 689.441 405.43 714.416 436.351C739.391 467.273 783.938 471.456 813.915 445.694Z" fill="#92E3A9"/>
<mask id="mask9_4_8" style="mask-type:luminance" maskUnits="userSpaceOnUse" x="697" y="316" width="143" height="147">
<path d="M838.251 402.36C845.239 362.509 819.748 324.528 781.314 317.526C742.881 310.524 706.06 337.153 699.072 377.004C692.084 416.855 717.575 454.836 756.008 461.838C794.442 468.84 831.263 442.211 838.251 402.36Z" fill="white"/>
</mask>
<g mask="url(#mask9_4_8)">
<path opacity="0.5" d="M813.802 445.527C843.842 419.673 847.999 373.721 823.087 342.892C798.175 312.063 753.627 308.029 723.587 333.884C693.547 359.738 689.39 405.689 714.302 436.519C739.214 467.348 783.762 471.381 813.802 445.527Z" fill="white"/>
</g>
<path d="M813.915 445.694C843.892 419.932 847.947 373.981 822.972 343.059C797.997 312.138 753.45 307.955 723.473 333.717C693.496 359.479 689.441 405.43 714.416 436.351C739.391 467.273 783.938 471.456 813.915 445.694Z" stroke="#263238" stroke-width="1.00001" stroke-miterlimit="10"/>
<path d="M770.731 389.521L829.487 420.024C832.816 412.933 835.01 405.146 835.831 396.861C837.688 378.151 832.164 360.412 821.72 346.728L770.731 389.521Z" fill="white"/>
<path d="M771.116 386.237L820.321 344.936C813.061 336.054 803.678 329.013 792.849 324.734L783.972 349.863L771.116 386.237Z" fill="#92E3A9"/>
<path d="M776.688 320.653L770.731 380.714L790.774 323.962C786.288 322.37 781.585 321.251 776.688 320.653Z" fill="#757575"/>
<path d="M767.667 388.974L774.469 320.405C737.855 317.145 705.317 344.787 701.554 382.629C700.324 394.97 702.326 406.863 706.788 417.461L767.667 388.974Z" fill="#999999"/>
<path d="M761.83 458.986C790.099 461.972 816.052 446.496 828.474 422.039L768.68 391.014L707.729 419.576C717.522 440.799 737.493 456.424 761.83 458.986Z" fill="#BFBFBF"/>
<path d="M880.935 353.843L872.879 352.997C872.059 352.898 871.456 352.152 871.528 351.281L872.348 342.971C872.445 342.125 873.168 341.503 874.012 341.577L882.069 342.423C882.889 342.523 883.492 343.269 883.419 344.14L882.599 352.45C882.503 353.296 881.779 353.918 880.935 353.843Z" fill="#92E3A9" stroke="#263238" stroke-miterlimit="10"/>
<path d="M994.058 358.471L890.197 347.499C889.497 347.424 888.991 346.777 889.063 346.056C889.136 345.334 889.763 344.812 890.462 344.887L994.299 355.859C994.998 355.933 995.505 356.58 995.432 357.302C995.384 358.023 994.757 358.546 994.058 358.471Z" fill="#263238"/>
<path d="M983.324 363.099L889.642 353.196C888.943 353.122 888.436 352.475 888.509 351.753C888.581 351.032 889.208 350.509 889.908 350.584L983.59 360.486C984.289 360.561 984.796 361.208 984.723 361.929C984.651 362.651 984.024 363.173 983.324 363.099Z" fill="#263238"/>
<path d="M878.402 379.395L870.346 378.549C869.526 378.45 868.923 377.703 868.995 376.832L869.815 368.523C869.912 367.677 870.636 367.055 871.48 367.129L879.536 367.975C880.356 368.075 880.959 368.821 880.887 369.692L880.066 378.002C879.97 378.873 879.222 379.495 878.402 379.395Z" fill="#757575" stroke="#263238" stroke-miterlimit="10" stroke-linecap="round" stroke-linejoin="round"/>
<path d="M991.525 384.023L887.688 373.051C886.989 372.976 886.482 372.329 886.555 371.608C886.627 370.886 887.254 370.364 887.954 370.438L991.79 381.41C992.49 381.485 992.996 382.132 992.924 382.853C992.852 383.575 992.224 384.097 991.525 384.023Z" fill="#263238"/>
<path d="M980.767 388.675L887.085 378.773C886.386 378.698 885.879 378.052 885.952 377.33C886.024 376.609 886.651 376.086 887.351 376.161L981.033 386.063C981.732 386.138 982.239 386.784 982.166 387.506C982.118 388.203 981.491 388.75 980.767 388.675Z" fill="#263238"/>
<path d="M875.87 404.947L867.814 404.101C866.994 404.001 866.391 403.255 866.463 402.384L867.283 394.074C867.379 393.228 868.103 392.606 868.947 392.681L877.003 393.527C877.823 393.626 878.426 394.373 878.354 395.244L877.534 403.554C877.438 404.424 876.69 405.046 875.87 404.947Z" fill="#999999" stroke="#263238" stroke-miterlimit="10" stroke-linecap="round" stroke-linejoin="round"/>
<path d="M988.968 409.599L885.132 398.627C884.432 398.553 883.926 397.906 883.998 397.184C884.07 396.463 884.698 395.94 885.397 396.015L989.234 406.987C989.933 407.062 990.44 407.709 990.367 408.43C990.295 409.152 989.668 409.674 988.968 409.599Z" fill="#263238"/>
<path d="M978.235 414.227L884.553 404.325C883.853 404.25 883.347 403.603 883.419 402.882C883.492 402.16 884.119 401.638 884.818 401.712L978.5 411.615C979.2 411.689 979.706 412.336 979.634 413.058C979.562 413.779 978.934 414.302 978.235 414.227Z" fill="#263238"/>
<path d="M873.313 430.523L865.257 429.678C864.437 429.578 863.834 428.832 863.906 427.961L864.726 419.651C864.823 418.805 865.546 418.183 866.391 418.258L874.447 419.104C875.267 419.203 875.87 419.949 875.797 420.82L874.977 429.13C874.905 429.976 874.157 430.598 873.313 430.523Z" fill="#BFBFBF" stroke="#263238" stroke-miterlimit="10"/>
<path d="M986.436 435.151L882.599 424.179C881.9 424.104 881.393 423.458 881.466 422.736C881.538 422.015 882.165 421.492 882.865 421.567L986.701 432.539C987.401 432.613 987.907 433.26 987.835 433.982C987.762 434.703 987.135 435.226 986.436 435.151Z" fill="#263238"/>
<path d="M975.702 439.779L882.02 429.877C881.321 429.802 880.814 429.155 880.887 428.434C880.959 427.712 881.586 427.19 882.286 427.264L975.968 437.166C976.667 437.241 977.174 437.888 977.101 438.609C977.029 439.331 976.402 439.853 975.702 439.779Z" fill="#263238"/>
<path d="M870.78 456.075L862.724 455.229C861.904 455.13 861.301 454.383 861.374 453.513L862.194 445.203C862.29 444.357 863.014 443.735 863.858 443.809L871.914 444.655C872.734 444.755 873.337 445.501 873.265 446.372L872.445 454.682C872.348 455.553 871.625 456.175 870.78 456.075Z" fill="white" stroke="#263238" stroke-miterlimit="10" stroke-linecap="round" stroke-linejoin="round"/>
<path d="M983.903 460.703L880.067 449.731C879.367 449.656 878.861 449.009 878.933 448.288C879.005 447.566 879.632 447.044 880.332 447.118L984.168 458.091C984.868 458.165 985.374 458.812 985.302 459.534C985.23 460.255 984.603 460.778 983.903 460.703Z" fill="#263238"/>
<path d="M973.17 465.331L879.488 455.428C878.788 455.354 878.282 454.707 878.354 453.985C878.426 453.264 879.053 452.741 879.753 452.816L973.435 462.718C974.135 462.793 974.641 463.44 974.569 464.161C974.496 464.883 973.869 465.405 973.17 465.331Z" fill="#263238"/>
</g>
<mask id="mask10_4_8" style="mask-type:luminance" maskUnits="userSpaceOnUse" x="614" y="195" width="442" height="595">
<path d="M1055.47 235.887L1021.39 578.933L1000.43 789.965L707.512 759.014L650.517 752.993L614.023 749.137L646.368 423.458L669.065 195.059L1055.47 235.887Z" fill="white"/>
</mask>
<g mask="url(#mask10_4_8)">
<path d="M937.723 647.894L943.65 648.521L947.126 613.548L941.2 612.921L937.723 647.894Z" fill="#757575" stroke="#263238" stroke-miterlimit="10" stroke-linecap="round" stroke-linejoin="round"/>
<path d="M938.205 642.689L944.131 643.315L945.766 626.856L939.839 626.23L938.205 642.689Z" fill="#92E3A9" stroke="#263238" stroke-miterlimit="10"/>
<path d="M951.911 640.541L957.838 641.167L961.311 606.195L955.384 605.569L951.911 640.541Z" fill="#757575" stroke="#263238" stroke-miterlimit="10" stroke-linecap="round" stroke-linejoin="round"/>
<path d="M954.533 614.836L952.897 631.296L958.824 631.922L960.46 615.463L954.533 614.836Z" fill="#92E3A9" stroke="#263238" stroke-miterlimit="10"/>
<path d="M964.589 648.642L970.516 649.269L973.989 614.296L968.062 613.67L964.589 648.642Z" fill="#757575" stroke="#263238" stroke-miterlimit="10" stroke-linecap="round" stroke-linejoin="round"/>
<path d="M965.934 635.419L971.861 636.046L973.497 619.587L967.57 618.96L965.934 635.419Z" fill="#92E3A9" stroke="#263238" stroke-miterlimit="10"/>
<path d="M925.063 639.565L930.99 640.192L934.466 605.219L928.54 604.592L925.063 639.565Z" fill="#757575" stroke="#263238" stroke-miterlimit="10" stroke-linecap="round" stroke-linejoin="round"/>
<path d="M925.545 634.359L931.472 634.985L933.106 618.526L927.18 617.9L925.545 634.359Z" fill="#92E3A9" stroke="#263238" stroke-miterlimit="10"/>
<path d="M910.656 648.561L916.583 649.188L920.056 614.215L914.129 613.589L910.656 648.561Z" fill="#757575" stroke="#263238" stroke-miterlimit="10" stroke-linecap="round" stroke-linejoin="round"/>
<path d="M911.087 644.549L917.014 645.175L918.65 628.716L912.723 628.089L911.087 644.549Z" fill="#92E3A9" stroke="#263238" stroke-miterlimit="10"/>
<path d="M898.202 638.128L904.128 638.754L907.601 603.782L901.675 603.155L898.202 638.128Z" fill="#757575" stroke="#263238" stroke-miterlimit="10" stroke-linecap="round" stroke-linejoin="round"/>
<path d="M898.372 636.751L904.299 637.378L905.935 620.918L900.008 620.292L898.372 636.751Z" fill="#92E3A9" stroke="#263238" stroke-miterlimit="10"/>
<path d="M883.075 654.923L889.001 655.55L892.478 620.577L886.551 619.951L883.075 654.923Z" fill="#757575" stroke="#263238" stroke-miterlimit="10" stroke-linecap="round" stroke-linejoin="round"/>
<path d="M883.191 653.623L889.117 654.25L890.753 637.791L884.827 637.164L883.191 653.623Z" fill="#92E3A9" stroke="#263238" stroke-miterlimit="10"/>
<path d="M871.866 631.552L877.792 632.178L881.265 597.206L875.339 596.579L871.866 631.552Z" fill="#757575" stroke="#263238" stroke-miterlimit="10" stroke-linecap="round" stroke-linejoin="round"/>
<path d="M872.405 626.284L878.332 626.911L879.966 610.451L874.04 609.825L872.405 626.284Z" fill="#92E3A9" stroke="#263238" stroke-miterlimit="10"/>
<path d="M858.753 628.048L864.679 628.675L868.156 593.702L862.229 593.075L858.753 628.048Z" fill="#757575" stroke="#263238" stroke-miterlimit="10" stroke-linecap="round" stroke-linejoin="round"/>
<path d="M860.035 614.922L865.961 615.549L867.596 599.089L861.669 598.463L860.035 614.922Z" fill="#92E3A9" stroke="#263238" stroke-miterlimit="10"/>
<path d="M843.197 648.649L849.124 649.275L852.597 614.303L846.67 613.677L843.197 648.649Z" fill="#757575" stroke="#263238" stroke-miterlimit="10" stroke-linecap="round" stroke-linejoin="round"/>
<path d="M844.648 634.157L850.574 634.783L852.209 618.324L846.282 617.697L844.648 634.157Z" fill="#92E3A9" stroke="#263238" stroke-miterlimit="10"/>
<path d="M831.375 631.858L837.302 632.484L840.775 597.511L834.848 596.885L831.375 631.858Z" fill="#757575" stroke="#263238" stroke-miterlimit="10" stroke-linecap="round" stroke-linejoin="round"/>
<path d="M832.026 625.28L837.953 625.906L839.587 609.447L833.66 608.821L832.026 625.28Z" fill="#92E3A9" stroke="#263238" stroke-miterlimit="10"/>
<path d="M817.149 639.519L823.076 640.146L826.552 605.173L820.625 604.546L817.149 639.519Z" fill="#757575" stroke="#263238" stroke-miterlimit="10" stroke-linecap="round" stroke-linejoin="round"/>
<path d="M817.654 634.309L823.581 634.935L825.216 618.476L819.289 617.85L817.654 634.309Z" fill="#92E3A9" stroke="#263238" stroke-miterlimit="10"/>
<path d="M802.242 653.814L808.168 654.441L811.645 619.469L805.718 618.842L802.242 653.814Z" fill="#757575" stroke="#263238" stroke-miterlimit="10" stroke-linecap="round" stroke-linejoin="round"/>
<path d="M802.231 653.865L808.158 654.491L809.792 638.032L803.866 637.406L802.231 653.865Z" fill="#92E3A9" stroke="#263238" stroke-miterlimit="10"/>
<path d="M791.081 630.314L797.008 630.94L800.481 595.967L794.554 595.341L791.081 630.314Z" fill="#757575" stroke="#263238" stroke-miterlimit="10" stroke-linecap="round" stroke-linejoin="round"/>
<path d="M791.453 626.34L797.38 626.966L799.014 610.507L793.087 609.881L791.453 626.34Z" fill="#92E3A9" stroke="#263238" stroke-miterlimit="10"/>
<path d="M779.288 613.475L785.215 614.102L788.691 579.13L782.765 578.503L779.288 613.475Z" fill="#757575" stroke="#263238" stroke-miterlimit="10" stroke-linecap="round" stroke-linejoin="round"/>
<path d="M779.651 609.58L785.578 610.206L787.212 593.747L781.286 593.121L779.651 609.58Z" fill="#92E3A9" stroke="#263238" stroke-miterlimit="10"/>
<path d="M764.053 630.629L769.979 631.255L773.452 596.283L767.526 595.657L764.053 630.629Z" fill="#757575" stroke="#263238" stroke-miterlimit="10" stroke-linecap="round" stroke-linejoin="round"/>
<path d="M765.4 617.394L771.326 618.021L772.962 601.562L767.036 600.935L765.4 617.394Z" fill="#92E3A9" stroke="#263238" stroke-miterlimit="10"/>
<path d="M748.745 648.978L754.672 649.604L758.145 614.632L752.218 614.005L748.745 648.978Z" fill="#757575" stroke="#263238" stroke-miterlimit="10" stroke-linecap="round" stroke-linejoin="round"/>
<path d="M750.316 633.165L756.242 633.791L757.877 617.332L751.95 616.706L750.316 633.165Z" fill="#92E3A9" stroke="#263238" stroke-miterlimit="10"/>
<path d="M737.362 627.796L743.289 628.423L746.761 593.45L740.835 592.824L737.362 627.796Z" fill="#757575" stroke="#263238" stroke-miterlimit="10" stroke-linecap="round" stroke-linejoin="round"/>
<path d="M737.93 622.484L743.857 623.111L745.493 606.652L739.566 606.025L737.93 622.484Z" fill="#92E3A9" stroke="#263238" stroke-miterlimit="10"/>
<path d="M724.638 620.53L730.564 621.157L734.041 586.184L728.114 585.557L724.638 620.53Z" fill="#757575" stroke="#263238" stroke-miterlimit="10" stroke-linecap="round" stroke-linejoin="round"/>
<path d="M726.033 606.082L731.96 606.708L733.594 590.249L727.668 589.623L726.033 606.082Z" fill="#92E3A9" stroke="#263238" stroke-miterlimit="10"/>
<path d="M710.196 630.02L716.123 630.647L719.599 595.674L713.672 595.047L710.196 630.02Z" fill="#757575" stroke="#263238" stroke-miterlimit="10" stroke-linecap="round" stroke-linejoin="round"/>
<path d="M710.165 630.06L716.092 630.686L717.726 614.227L711.8 613.601L710.165 630.06Z" fill="#92E3A9" stroke="#263238" stroke-miterlimit="10"/>
<path d="M697.892 617.743L703.819 618.369L707.292 583.396L701.365 582.77L697.892 617.743Z" fill="#757575" stroke="#263238" stroke-miterlimit="10" stroke-linecap="round" stroke-linejoin="round"/>
<path d="M698.203 615.064L704.129 615.69L705.765 599.231L699.839 598.604L698.203 615.064Z" fill="#92E3A9" stroke="#263238" stroke-miterlimit="10"/>
<path d="M684.077 621.048L690.003 621.675L693.476 586.702L687.55 586.076L684.077 621.048Z" fill="#757575" stroke="#263238" stroke-miterlimit="10" stroke-linecap="round" stroke-linejoin="round"/>
<path d="M684.217 619.727L690.144 620.353L691.778 603.894L685.852 603.268L684.217 619.727Z" fill="#92E3A9" stroke="#263238" stroke-miterlimit="10"/>
<path d="M671.18 615.138L677.107 615.765L680.58 580.792L674.653 580.166L671.18 615.138Z" fill="#757575" stroke="#263238" stroke-miterlimit="10" stroke-linecap="round" stroke-linejoin="round"/>
<path d="M672.889 598.036L678.816 598.662L680.45 582.203L674.523 581.577L672.889 598.036Z" fill="#92E3A9" stroke="#263238" stroke-miterlimit="10"/>
</g>
<mask id="mask11_4_8" style="mask-type:luminance" maskUnits="userSpaceOnUse" x="614" y="195" width="442" height="595">
<path d="M1055.47 235.887L1021.39 578.933L1000.43 789.965L707.512 759.014L650.517 752.993L614.023 749.137L646.368 423.458L669.065 195.059L1055.47 235.887Z" fill="white"/>
</mask>
<g mask="url(#mask11_4_8)">
<path d="M974.086 690.868L703.363 662.256C701.796 662.082 700.397 663.276 700.228 664.868C700.059 666.486 701.217 667.929 702.76 668.103L973.483 696.715C975.051 696.889 976.45 695.695 976.619 694.102C976.788 692.46 975.654 691.017 974.086 690.868Z" fill="#263238"/>
<path d="M972.012 711.892L657.222 678.627C655.654 678.453 654.255 679.647 654.086 681.239C653.917 682.857 655.075 684.3 656.619 684.474L971.409 717.738C972.977 717.912 974.376 716.718 974.545 715.126C974.713 713.484 973.58 712.041 972.012 711.892Z" fill="#263238"/>
<path d="M837.688 718.933L655.123 699.626C653.556 699.452 652.157 700.646 651.988 702.238C651.819 703.855 652.977 705.298 654.52 705.472L837.085 724.779C838.652 724.953 840.051 723.759 840.22 722.167C840.389 720.55 839.255 719.107 837.688 718.933Z" fill="#263238"/>
</g>
<mask id="mask12_4_8" style="mask-type:luminance" maskUnits="userSpaceOnUse" x="614" y="195" width="442" height="595">
<path d="M1055.47 235.887L1021.39 578.933L1000.43 789.965L707.512 759.014L650.517 752.993L614.023 749.137L646.368 423.458L669.065 195.059L1055.47 235.887Z" fill="white"/>
</mask>
<g mask="url(#mask12_4_8)">
<path opacity="0.2" d="M1003.95 531.163C994.612 530.392 991.38 545.743 991.38 545.743C991.38 545.743 976.619 525.789 978.959 478.865C978.959 478.865 971.747 458.066 952.427 470.63C933.131 483.194 913.087 527.481 917.863 575.723L880.308 447.118C867.331 449.955 840.968 467.943 847.915 554.799L806.935 510.115C806.935 510.115 795.84 506.432 789.568 516.559C783.297 526.71 786.288 599.21 791.474 626.329C796.684 653.473 783.442 707.936 783.442 707.936C783.442 707.936 769.308 646.233 743.74 630.608L646.368 423.458L614.023 749.137L650.517 752.993L709.128 723.56C708.79 737.17 708.477 749.684 707.512 759.014L1000.43 789.965L1021.39 578.933C1014.27 552.635 1007.47 531.437 1003.95 531.163Z" fill="black" fill-opacity="0.7"/>
</g>
<path d="M1055.47 235.887L1021.39 578.933L1000.43 789.965L707.512 759.014L650.517 752.993L614.023 749.137L646.368 423.458L669.065 195.059L1055.47 235.887Z" stroke="#263238" stroke-miterlimit="10" stroke-linecap="round" stroke-linejoin="round"/>
<path d="M1050.64 1119.03L879.391 1149.08C879.391 1149.08 849.579 985.746 831.802 960.02C814.026 934.269 817.282 923.695 808.647 906.354C803.437 895.879 777.315 876.348 756.813 857.066H756.789C755.004 855.399 753.268 853.732 751.603 852.065C750.88 851.394 750.204 850.672 749.529 850C746.803 847.214 744.271 844.502 742.028 841.84C741.208 840.894 740.436 839.949 739.712 839.003C735.443 833.555 732.428 828.454 731.415 823.851C731.342 823.603 731.294 823.354 731.27 823.08C731.198 822.757 731.15 822.458 731.125 822.16C730.667 818.303 730.185 813.899 729.702 809.122C729.606 808.177 729.509 807.182 729.389 806.187C729.341 805.789 729.292 805.415 729.244 804.992C728.834 801.012 728.376 796.782 727.845 792.428C727.314 787.875 726.736 783.148 726.06 778.396C725.843 776.754 725.626 775.111 725.361 773.445C725.361 773.42 725.361 773.395 725.337 773.395C725.071 771.554 724.782 769.713 724.492 767.847C724.227 766.254 723.962 764.662 723.696 763.07C723.648 762.796 723.576 762.547 723.552 762.323C723.214 760.457 722.876 758.641 722.539 756.8C722.466 756.601 722.442 756.402 722.418 756.178C722.08 754.561 721.767 752.968 721.405 751.351C720.657 747.743 719.813 744.211 718.897 740.777C717.088 733.935 714.965 727.541 712.505 721.868C700.155 693.431 716.219 703.706 706.547 630.534C706.547 630.534 713.663 613.566 733.947 627.125C735.515 628.17 737.011 629.315 738.482 630.534H738.506C742.582 633.918 746.2 637.923 749.288 642.426C753.316 648.273 756.451 654.966 758.598 662.231C761.806 673.054 762.843 685.17 761.348 697.809C761.348 697.809 776.592 751.699 784.624 763.965C792.68 776.231 825.869 705.771 823.722 697.561C823.288 695.918 822.685 691.913 822.01 686.414C821.865 685.195 821.72 683.901 821.551 682.533C821.407 681.165 821.238 679.746 821.093 678.279C820.997 677.582 820.924 676.836 820.828 676.114C820.804 675.815 820.779 675.517 820.731 675.243C820.442 672.432 820.104 669.446 819.791 666.361C819.718 665.49 819.622 664.669 819.525 663.823C819.38 662.355 819.236 660.838 819.091 659.345C819.043 659.121 819.043 658.872 819.019 658.598C818.922 657.753 818.826 656.882 818.753 655.986C818.56 654.244 818.392 652.478 818.223 650.712C818.054 649.194 817.933 647.676 817.789 646.158C817.499 643.297 817.234 640.436 816.968 637.674C816.776 635.609 816.583 633.569 816.414 631.579C816.366 631.131 816.317 630.683 816.293 630.26C815.28 619.313 814.484 610.306 814.195 606.475C814.195 606.475 790.051 569.603 787.566 552.236C785.082 534.845 785.299 516.583 795.405 509.144C819.332 491.579 812.337 519.892 823.047 531.611C833.756 543.379 850.182 562.537 859.492 568.533C868.079 574.156 875.749 596 876.834 599.185C875.604 594.408 863.327 547.435 863.062 537.98C862.748 528.003 855.368 475.382 867.91 456.498C880.428 437.639 897.119 452.269 898.663 456.001C900.207 459.733 900.665 510.712 905.079 524.918C909.517 539.1 927.969 598.24 927.969 598.24C927.969 598.24 928.741 540.717 932.913 514.966C937.062 489.24 947.916 469.088 958.529 467.943C969.142 466.799 978.958 478.865 978.958 478.865C978.958 478.865 974.762 519.917 975.968 529.397C977.149 538.851 974.231 573.111 979.272 591.522C979.272 591.522 978.693 542.484 986.074 536.214C993.479 529.944 999.798 526.934 1003.95 531.163C1008.07 535.393 1008.99 564.428 1013.21 581.893C1017.45 599.384 1016.9 623.095 1019.67 650.338C1022.45 677.582 1033.37 715.4 1031.2 737.02C1029.03 758.591 1022.35 812.257 1016.97 843.731C1011.59 875.229 997.868 918.321 997.868 918.321C997.868 918.321 1004.12 941.335 1002.91 961.861C1001.68 982.387 1050.64 1119.03 1050.64 1119.03Z" fill="white"/>
<path opacity="0.4" d="M905.079 524.918C908.359 535.418 919.31 570.548 924.785 588.089C924.785 588.089 900.834 606.251 901.437 623.095C902.064 639.939 897.047 673.999 886.314 673.029C875.58 672.083 876.545 601.225 873.023 589.333C875.194 594.433 876.617 598.613 876.907 599.434C876.111 596.374 863.327 547.634 863.062 537.98C862.99 535.716 862.555 531.188 862.049 525.341V525.217C862.049 525.217 885.831 501.73 903.318 516.111V516.136C903.849 519.718 904.428 522.729 905.079 524.918Z" fill="#92E3A9"/>
<path opacity="0.4" d="M976.209 545.171C965.066 556.068 948.254 575.35 946.131 593.935C946.131 593.935 952.354 645.81 949.701 668.451L927.969 598.264C927.969 598.264 928.741 540.742 932.914 514.991C933.034 514.294 933.155 513.573 933.275 512.851C943.936 507.229 958.553 502.203 976.908 501.854C976.064 512.951 975.389 524.844 975.968 529.397C976.33 532.482 976.305 538.204 976.209 545.171Z" fill="#92E3A9"/>
<path opacity="0.4" d="M986.074 536.214C986.026 536.264 986.002 536.288 985.978 536.288C985.712 536.487 985.061 537.01 984.12 537.831C984.723 536.686 985.35 535.592 986.026 534.597L986.074 536.214Z" fill="#92E3A9"/>
<path opacity="0.4" d="M991.742 679.697C991.742 679.697 977.415 624.264 977.174 579.629C977.077 563.109 978.91 548.057 984.096 537.881L984.12 537.856C984.723 536.711 985.35 535.617 986.026 534.621L986.074 536.239C989.137 533.651 991.983 531.611 994.612 530.417C990.584 536.886 985.953 549.549 991.308 570.125C999.726 602.345 992.394 641.73 991.742 679.697Z" fill="#92E3A9"/>
<path opacity="0.4" d="M794.127 785.337C794.127 785.337 797.986 838.157 756.813 857.091H756.789C755.004 855.424 753.292 853.757 751.603 852.09C750.88 851.394 750.205 850.697 749.529 850.025C746.804 847.239 744.271 844.527 742.028 841.865C741.208 840.894 740.436 839.949 739.712 839.028C735.443 833.58 732.428 828.479 731.415 823.876C731.343 823.628 731.294 823.354 731.27 823.105C731.198 822.782 731.15 822.483 731.126 822.184C730.667 818.328 730.185 813.924 729.703 809.147C729.606 808.202 729.51 807.207 729.389 806.212C729.341 805.813 729.292 805.415 729.268 805.017C728.834 801.036 728.376 796.807 727.869 792.453C727.339 787.9 726.76 783.173 726.085 778.421C725.843 776.778 725.626 775.112 725.385 773.469C725.385 773.445 725.385 773.42 725.361 773.42C725.096 771.579 724.806 769.713 724.517 767.871C724.251 766.279 723.986 764.687 723.721 763.07C723.672 762.821 723.624 762.572 723.576 762.323C723.238 760.482 722.901 758.641 722.539 756.8C722.491 756.601 722.442 756.377 722.418 756.178C722.105 754.561 721.767 752.943 721.429 751.351C720.633 747.743 719.813 744.211 718.897 740.777C735.178 724.605 772.757 734.756 754.57 697.312C754.57 697.312 763.736 665.266 738.482 630.509H738.506C755.776 644.89 764.628 670.118 761.348 697.809C761.348 697.809 776.592 751.675 784.624 763.965C792.68 776.231 825.869 705.771 823.698 697.561C823.288 695.943 822.685 691.913 822.01 686.414C821.865 685.195 821.72 683.901 821.551 682.533C821.383 681.165 821.238 679.746 821.069 678.279C820.973 677.582 820.9 676.86 820.828 676.139C820.804 675.84 820.78 675.542 820.731 675.268C820.442 672.432 820.128 669.471 819.791 666.361C819.718 665.515 819.622 664.669 819.525 663.823C819.381 662.355 819.236 660.863 819.091 659.345C819.067 659.121 819.043 658.872 819.019 658.598C818.947 657.753 818.826 656.882 818.754 655.961C818.561 654.22 818.416 652.453 818.223 650.687C818.078 649.169 817.933 647.651 817.789 646.134C817.523 643.272 817.234 640.411 816.993 637.65C816.8 635.584 816.607 633.519 816.414 631.579C816.366 631.131 816.342 630.683 816.293 630.235C816.969 633.495 829.198 693.555 836.168 707.537C843.332 721.968 812.917 797.777 794.127 785.337Z" fill="#92E3A9"/>
<path opacity="0.4" d="M1016.97 843.731C1011.59 875.229 997.893 918.321 997.893 918.321C997.893 918.321 1004.14 941.335 1002.91 961.861C1002.57 967.384 1005.9 981.317 1010.87 998.733C1009.42 994.901 994.058 953.8 994.299 939.469C994.588 924.416 990.44 920.261 982.311 901.776C974.207 883.265 961.785 885.33 961.785 885.33C961.785 885.33 957.009 931.457 945.769 901.154C934.554 870.825 932.383 835.595 960.676 713.185C960.676 713.185 964.945 728.536 961.375 774.141C957.781 819.771 968.37 833.555 968.37 833.555C968.37 833.555 991.236 794.717 1005.97 743.091C1005.97 743.091 1002.33 796.309 999.051 820.567C995.794 844.8 1010.65 792.478 1021.02 760.134C1030.77 729.805 1031.13 718.261 1027.42 696.665C1030.17 711.891 1032.24 726.396 1031.18 736.995C1029.03 758.591 1022.35 812.257 1016.97 843.731Z" fill="#92E3A9"/>
<path opacity="0.4" d="M823.457 946.336C831.803 960.02 852.232 978.107 864.413 1028.14C876.593 1078.17 868.923 1132.94 868.923 1132.94L823.457 946.336Z" fill="#92E3A9"/>
<path opacity="0.2" d="M758.598 662.231C758.598 662.231 715.882 684.548 712.505 721.868C700.156 693.43 716.219 703.706 706.547 630.534C706.547 630.534 713.663 613.566 733.948 627.125C735.516 628.17 737.011 629.315 738.482 630.534H738.506C742.583 633.917 746.201 637.923 749.288 642.426L758.598 662.231Z" fill="black" fill-opacity="0.7"/>
<path d="M879.391 1149.08C879.391 1149.08 849.603 985.745 831.802 960.019C814.026 934.293 817.282 923.695 808.647 906.353C800.012 889.012 734.044 846.815 731.126 822.159C728.207 797.528 724.854 750.306 712.505 721.868C700.155 693.405 716.219 703.706 706.523 630.534C706.523 630.534 713.687 613.59 733.948 627.125C754.208 640.685 764.894 667.804 761.348 697.834C761.348 697.834 776.592 751.699 784.624 763.965C792.68 776.256 825.845 705.771 823.698 697.535C821.551 689.3 815.184 619.238 814.195 606.475C814.195 606.475 790.051 569.578 787.566 552.236C785.082 534.87 785.299 516.583 795.405 509.169C819.332 491.604 812.338 519.917 823.047 531.66C833.756 543.404 850.182 562.561 859.492 568.582C868.803 574.603 876.955 599.608 876.955 599.608C876.955 599.608 863.351 548.007 863.062 538.03C862.773 528.053 855.368 475.432 867.91 456.573C880.452 437.714 897.143 452.343 898.663 456.05C900.207 459.782 900.689 510.761 905.103 524.943C909.517 539.149 927.969 598.289 927.969 598.289C927.969 598.289 928.765 540.767 932.913 515.016C937.086 489.265 947.94 469.112 958.529 467.993C969.142 466.848 978.959 478.915 978.959 478.915C978.959 478.915 974.762 519.967 975.944 529.446C977.125 538.925 974.231 573.16 979.272 591.572C979.272 591.572 978.669 542.533 986.074 536.263C993.479 529.993 999.798 526.983 1003.92 531.213C1008.07 535.442 1008.96 564.477 1013.21 581.943C1017.43 599.409 1016.9 623.144 1019.67 650.388C1022.45 677.631 1033.37 715.449 1031.2 737.045C1029.03 758.641 1022.33 812.282 1016.95 843.78C1011.57 875.278 997.869 918.37 997.869 918.37C997.869 918.37 1004.12 941.384 1002.89 961.91C1001.66 982.436 1050.62 1119.08 1050.62 1119.08" stroke="#263238" stroke-miterlimit="10" stroke-linecap="round" stroke-linejoin="round"/>
<path d="M927.945 598.24C932.938 610.331 945.263 661.385 949.677 668.451C954.091 675.517 959.084 677.657 959.084 677.657" stroke="#263238" stroke-miterlimit="10" stroke-linecap="round" stroke-linejoin="round"/>
<path d="M979.272 591.522C979.272 591.522 978.211 601.972 983.686 635.336C989.161 668.675 991.839 682.881 994.902 690.32" stroke="#263238" stroke-miterlimit="10" stroke-linecap="round" stroke-linejoin="round"/>
<path d="M876.955 599.558C883.66 619.885 887.423 652.279 891.234 662.032C895.045 671.785 898.446 673.8 898.446 673.8" stroke="#263238" stroke-miterlimit="10" stroke-linecap="round" stroke-linejoin="round"/>
<path d="M887.785 648.323C887.785 648.323 894.804 653.697 897.047 660.39" stroke="#263238" stroke-miterlimit="10" stroke-linecap="round" stroke-linejoin="round"/>
<path d="M784.648 763.965C784.648 763.965 788.314 790.91 804.692 788.771" stroke="#263238" stroke-miterlimit="10" stroke-linecap="round" stroke-linejoin="round"/>
<path d="M823.698 697.536C823.698 697.536 827.943 729.556 820.973 743.166" stroke="#263238" stroke-miterlimit="10" stroke-linecap="round" stroke-linejoin="round"/>
<path d="M954.525 697.834C954.525 697.834 965.524 704.776 958.167 725.152C950.81 745.529 938.027 827.733 938.027 827.733" stroke="#263238" stroke-miterlimit="10" stroke-linecap="round" stroke-linejoin="round"/>
<path d="M1002.4 719.331C1007.01 737.742 1007.42 738.214 999.943 760.83C992.442 783.446 980.382 838.829 980.382 838.829" stroke="#263238" stroke-miterlimit="10" stroke-linecap="round" stroke-linejoin="round"/>
<path d="M997.893 918.321C997.893 918.321 990.705 903.343 996.639 891.027" stroke="#263238" stroke-miterlimit="10" stroke-linecap="round" stroke-linejoin="round"/>
<path d="M831.802 960.02C831.802 960.02 849.989 986.368 857.9 1015.85" stroke="#263238" stroke-miterlimit="10" stroke-linecap="round" stroke-linejoin="round"/>
<path d="M965.62 498.172L970.541 493.171L972.76 492.5L972.615 494.988L968.08 500.934L965.62 498.172Z" fill="#757575" stroke="#263238" stroke-miterlimit="10" stroke-linecap="round" stroke-linejoin="round"/>
<path d="M969.6 500.959L961.616 519.693L746.466 815.591L722.49 799.842L755.028 757.745L948.278 507.701L965.331 496.53C965.306 496.505 968.949 497.476 969.6 500.959Z" fill="#92E3A9"/>
<mask id="mask13_4_8" style="mask-type:luminance" maskUnits="userSpaceOnUse" x="722" y="496" width="248" height="320">
<path d="M969.6 500.959L961.616 519.693L746.466 815.591L722.49 799.842L755.028 757.745L948.278 507.701L965.331 496.53C965.306 496.505 968.949 497.476 969.6 500.959Z" fill="white"/>
</mask>
<g mask="url(#mask13_4_8)">
<path opacity="0.3" d="M969.6 500.959L961.616 519.693L746.466 815.591L722.49 799.842L755.028 757.745C769.983 756.153 772.467 765.259 772.467 765.259L957.829 515.713C956.02 508.995 948.278 507.701 948.278 507.701L965.331 496.53C965.306 496.505 968.949 497.476 969.6 500.959Z" fill="black" fill-opacity="0.7"/>
</g>
<path d="M969.6 500.959L961.616 519.693L746.466 815.591L722.49 799.842L755.028 757.745L948.278 507.701L965.331 496.53C965.306 496.505 968.949 497.476 969.6 500.959Z" stroke="#263238" stroke-miterlimit="10" stroke-linecap="round" stroke-linejoin="round"/>
<path d="M816.631 727.964C816.631 727.964 792.632 777.127 769.525 811.909L753.027 816.313C753.027 816.313 715.158 855.126 692.051 874.507C692.051 874.507 686.118 870.949 680.763 864.729C680.763 864.729 713.566 799.743 749.867 758.616C749.867 758.616 755.149 760.283 761.782 765.135C765.714 768.021 770.152 772.002 774.204 777.425L814.653 724.929L816.631 727.964Z" fill="#92E3A9"/>
<mask id="mask14_4_8" style="mask-type:luminance" maskUnits="userSpaceOnUse" x="680" y="724" width="137" height="151">
<path d="M816.631 727.964C816.631 727.964 792.632 777.127 769.525 811.909L753.027 816.313C753.027 816.313 715.158 855.126 692.051 874.507C692.051 874.507 686.118 870.949 680.763 864.729C680.763 864.729 713.566 799.743 749.867 758.616C749.867 758.616 755.149 760.283 761.782 765.135C765.714 768.021 770.152 772.002 774.204 777.425L814.653 724.929L816.631 727.964Z" fill="white"/>
</mask>
<g mask="url(#mask14_4_8)">
<path opacity="0.3" d="M816.631 727.964C816.631 727.964 792.632 777.127 769.525 811.909L753.027 816.313C753.027 816.313 715.158 855.126 692.051 874.507L692.678 863.958C717.739 824.473 749.577 781.406 761.758 765.135C765.69 768.021 770.128 772.002 774.18 777.425L751.7 808.376L764.58 805.988L814.629 724.929L816.631 727.964Z" fill="black" fill-opacity="0.7"/>
</g>
<path d="M816.631 727.964C816.631 727.964 792.632 777.127 769.525 811.909L753.027 816.313C753.027 816.313 715.158 855.126 692.051 874.507C692.051 874.507 686.118 870.949 680.763 864.729C680.763 864.729 713.566 799.743 749.867 758.616C749.867 758.616 755.149 760.283 761.782 765.135C765.714 768.021 770.152 772.002 774.204 777.425L814.653 724.929L816.631 727.964Z" stroke="#263238" stroke-miterlimit="10" stroke-linecap="round" stroke-linejoin="round"/>
<path d="M898.422 673.8L831.223 741.026L820.49 751.774C827.846 732.268 824.277 702.138 823.818 698.456C823.818 698.431 823.818 698.406 823.818 698.406C823.794 698.207 823.77 698.083 823.77 698.083C823.77 697.909 823.746 697.685 823.722 697.561C823.312 695.943 822.709 691.913 822.033 686.414C821.889 685.195 821.744 683.901 821.575 682.533C821.406 681.165 821.262 679.746 821.093 678.279C820.996 677.582 820.924 676.86 820.852 676.139C820.828 675.84 820.803 675.542 820.755 675.268C820.466 672.457 820.128 669.471 819.814 666.361C819.742 665.515 819.646 664.669 819.549 663.823C819.404 662.355 819.26 660.863 819.115 659.345C819.091 659.121 819.067 658.872 819.043 658.598C818.97 657.753 818.85 656.882 818.777 655.961C818.584 654.22 818.44 652.453 818.247 650.687C818.102 649.169 817.957 647.651 817.812 646.134C817.547 643.272 817.258 640.411 817.017 637.65C816.799 635.584 816.606 633.544 816.438 631.579C816.389 631.131 816.365 630.683 816.317 630.235C815.304 619.288 814.508 610.306 814.219 606.45C814.219 606.45 790.099 569.578 787.59 552.212C785.106 534.845 785.323 516.559 795.429 509.144C819.356 491.554 812.337 519.868 823.047 531.611C833.756 543.379 850.206 562.512 859.492 568.533C868.778 574.579 876.955 599.558 876.955 599.558C883.636 619.885 887.423 652.254 891.234 662.032C895.045 671.785 898.422 673.8 898.422 673.8Z" fill="white"/>
<path d="M887.785 648.323C887.785 648.323 894.804 653.697 897.047 660.39" stroke="#263238" stroke-miterlimit="10" stroke-linecap="round" stroke-linejoin="round"/>
<path opacity="0.4" d="M823.047 531.611C833.708 543.354 850.085 562.387 859.395 568.483C858.093 567.811 840.944 559.178 831.368 568.781C821.406 578.783 814.194 606.474 814.194 606.474C814.194 606.474 790.074 569.602 787.566 552.236C785.082 534.87 785.299 516.583 795.405 509.169C819.332 491.579 812.337 519.892 823.047 531.611Z" fill="#92E3A9"/>
<path opacity="0.4" d="M831.224 741.026L820.49 751.774C827.847 732.268 824.277 702.138 823.819 698.456C823.819 698.431 823.819 698.406 823.819 698.406C823.819 698.058 823.77 697.784 823.722 697.561C823.312 695.943 822.709 691.913 822.034 686.414C821.889 685.195 821.744 683.901 821.576 682.533C821.407 681.165 821.262 679.746 821.093 678.279C820.997 677.582 820.924 676.86 820.852 676.139C820.828 675.84 820.804 675.542 820.755 675.268C820.466 672.432 820.152 669.471 819.815 666.361C819.742 665.515 819.646 664.669 819.549 663.823C819.405 662.355 819.26 660.863 819.115 659.345C819.091 659.121 819.067 658.872 819.043 658.598C818.971 657.753 818.85 656.882 818.778 655.961C818.585 654.22 818.44 652.453 818.247 650.687C818.102 649.169 817.958 647.651 817.813 646.134C817.547 643.272 817.258 640.411 817.017 637.65C816.824 635.584 816.631 633.519 816.438 631.579C816.39 631.131 816.366 630.683 816.317 630.235C816.993 633.495 829.222 693.555 836.192 707.537C838.797 712.862 836.337 726.521 831.224 741.026Z" fill="#92E3A9"/>
<path d="M898.422 673.8C898.422 673.8 895.021 671.785 891.21 662.032C887.399 652.279 883.612 619.885 876.931 599.558C876.931 599.558 868.754 574.554 859.468 568.533C850.158 562.512 833.756 543.354 823.023 531.611C812.314 519.868 819.308 491.554 795.381 509.119C785.275 516.534 785.082 534.82 787.542 552.187C790.027 569.553 814.171 606.425 814.171 606.425C815.16 619.213 821.527 689.275 823.674 697.486" stroke="#263238" stroke-miterlimit="10" stroke-linecap="round" stroke-linejoin="round"/>
<path d="M823.698 697.536C823.698 697.536 827.943 729.556 820.973 743.166" stroke="#263238" stroke-miterlimit="10" stroke-linecap="round" stroke-linejoin="round"/>
<path opacity="0.2" d="M411.174 736.722C411.174 736.722 426.442 809.844 393.373 863.062C360.305 916.256 334.858 930.462 323.401 946.336C311.944 962.209 267.153 1050.96 267.153 1050.96L214.813 891.052L267.153 693.231L411.174 736.722Z" fill="black" fill-opacity="0.7"/>
<path d="M719.668 680.816L395.11 821.712L361.655 836.242L298.606 681.712L152.197 322.868L510.21 167.442L719.668 680.816Z" fill="white"/>
<mask id="mask15_4_8" style="mask-type:luminance" maskUnits="userSpaceOnUse" x="152" y="167" width="568" height="670">
<path d="M719.668 680.816L395.11 821.712L361.655 836.242L298.606 681.712L152.197 322.868L510.21 167.442L719.668 680.816Z" fill="white"/>
</mask>
<g mask="url(#mask15_4_8)">
<path d="M417.71 234.245L263.173 301.322C260.279 302.591 258.904 306.024 260.134 309.01C261.364 311.995 264.693 313.413 267.587 312.144L422.124 245.068C425.018 243.799 426.393 240.366 425.163 237.38C423.957 234.37 420.604 232.976 417.71 234.245Z" fill="#263238"/>
</g>
<mask id="mask16_4_8" style="mask-type:luminance" maskUnits="userSpaceOnUse" x="152" y="167" width="568" height="670">
<path d="M719.668 680.816L395.11 821.712L361.655 836.242L298.606 681.712L152.197 322.868L510.21 167.442L719.668 680.816Z" fill="white"/>
</mask>
<g mask="url(#mask16_4_8)">
<path d="M388.163 273.282L310.883 306.82C309.435 307.442 308.76 309.184 309.363 310.677C309.966 312.169 311.654 312.866 313.102 312.244L390.382 278.706C391.829 278.084 392.505 276.342 391.902 274.849C391.275 273.357 389.61 272.635 388.163 273.282Z" fill="#263238"/>
</g>
<mask id="mask17_4_8" style="mask-type:luminance" maskUnits="userSpaceOnUse" x="152" y="167" width="568" height="670">
<path d="M719.668 680.816L395.11 821.712L361.655 836.242L298.606 681.712L152.197 322.868L510.21 167.442L719.668 680.816Z" fill="white"/>
</mask>
<g mask="url(#mask17_4_8)">
<path d="M515.3 477.621C515.3 477.621 518.556 504.019 509.028 508.174C500.321 511.956 488.864 497.774 478.854 502.128C468.845 506.482 476.732 543.902 467.084 548.106C457.436 552.286 445.81 536.91 437.489 540.518C429.167 544.126 434.208 563.383 425.622 567.115C418.53 570.2 408.4 554.874 400.296 551.515C398.583 550.793 396.943 550.619 395.472 551.266C386.981 554.948 391.202 595.179 383.87 598.339C381.434 599.409 379.311 599.583 377.357 599.434C374.463 599.235 371.906 598.339 369.084 598.638C368.095 598.737 367.082 598.986 365.997 599.459C359.75 602.171 360.594 623.343 354.878 625.831C349.161 628.319 343.517 625.234 337.415 627.897C331.312 630.559 331.409 641.556 322.316 645.512L326.175 654.941L548.344 558.506" fill="#BFBFBF"/>
<path d="M515.3 477.621C515.3 477.621 518.556 504.019 509.028 508.174C500.321 511.956 488.864 497.774 478.854 502.128C468.845 506.482 476.732 543.902 467.084 548.106C457.436 552.286 445.81 536.91 437.489 540.518C429.167 544.126 434.208 563.383 425.622 567.115C418.53 570.2 408.4 554.874 400.296 551.515C398.583 550.793 396.943 550.619 395.472 551.266C386.981 554.948 391.202 595.179 383.87 598.339C381.434 599.409 379.311 599.583 377.357 599.434C374.463 599.235 371.906 598.339 369.084 598.638C368.095 598.737 367.082 598.986 365.997 599.459C359.75 602.171 360.594 623.343 354.878 625.831C349.161 628.319 343.517 625.234 337.415 627.897C331.312 630.559 331.409 641.556 322.316 645.512L326.175 654.941L548.344 558.506" stroke="#263238" stroke-miterlimit="10"/>
<path d="M281.143 544.673L326.127 654.916L558.74 553.953" stroke="#263238" stroke-miterlimit="10" stroke-linecap="round" stroke-linejoin="round"/>
<path d="M533.173 521.435C533.173 521.435 532.087 520.042 530.423 518.4C527.553 515.538 522.994 511.906 519.521 513.399C516.12 514.867 515.83 520.689 515.903 526.884C515.975 534.447 516.626 542.558 512.936 544.175C509.8 545.544 507.002 543.479 504.108 541.264C500.804 538.727 497.427 535.94 493.35 537.707C486.5 540.692 488.575 549.898 486.163 557.785C484.933 561.815 482.521 565.497 477.142 567.836C471.208 570.399 465.202 567.886 459.558 563.905C450.007 557.188 441.42 546.29 435.848 548.703C426.996 552.535 436.765 577.241 427.238 581.371C421.931 583.685 410.932 566.393 400.247 551.54C391.805 539.772 383.556 529.546 378.467 531.735C366.986 536.711 385.896 595.752 377.55 599.384C377.478 599.409 377.381 599.459 377.285 599.484C373.812 600.902 371.255 600.006 369.012 598.687C365.997 596.921 363.561 594.433 360.232 595.876C354.082 598.538 357.7 621.677 350.922 624.637C344.144 627.573 340.092 623.319 332.47 626.628C326.03 629.414 322.195 645.536 322.195 645.536L326.054 654.966L548.223 558.531" fill="#757575"/>
<path d="M533.173 521.435C533.173 521.435 532.087 520.042 530.423 518.4C527.553 515.538 522.994 511.906 519.521 513.399C516.12 514.867 515.83 520.689 515.903 526.884C515.975 534.447 516.626 542.558 512.936 544.175C509.8 545.544 507.002 543.479 504.108 541.264C500.804 538.727 497.427 535.94 493.35 537.707C486.5 540.692 488.575 549.898 486.163 557.785C484.933 561.815 482.521 565.497 477.142 567.836C471.208 570.399 465.202 567.886 459.558 563.905C450.007 557.188 441.42 546.29 435.848 548.703C426.996 552.535 436.765 577.241 427.238 581.371C421.931 583.685 410.932 566.393 400.247 551.54C391.805 539.772 383.556 529.546 378.467 531.735C366.986 536.711 385.896 595.752 377.55 599.384C377.478 599.409 377.381 599.459 377.285 599.484C373.812 600.902 371.255 600.006 369.012 598.687C365.997 596.921 363.561 594.433 360.232 595.876C354.082 598.538 357.7 621.677 350.922 624.637C344.144 627.573 340.092 623.319 332.47 626.628C326.03 629.414 322.195 645.536 322.195 645.536L326.054 654.966L548.223 558.531" stroke="#263238" stroke-miterlimit="10" stroke-linecap="round" stroke-linejoin="round"/>
<path d="M486.139 600.13L408.858 633.669C407.411 634.291 406.736 636.032 407.339 637.525C407.942 639.018 409.63 639.715 411.077 639.093L488.358 605.554C489.805 604.932 490.48 603.191 489.877 601.698C489.274 600.205 487.61 599.508 486.139 600.13Z" fill="#263238"/>
<path d="M551.672 478.617L544.195 481.851C543.423 482.174 542.531 481.801 542.217 481.03L539.082 473.317C538.768 472.521 539.13 471.6 539.878 471.277L547.355 468.043C548.127 467.719 549.019 468.092 549.333 468.864L552.468 476.576C552.806 477.348 552.444 478.268 551.672 478.617Z" fill="#BFBFBF" stroke="#263238" stroke-miterlimit="10"/>
<path d="M587.732 455.055L556.858 468.465C556.207 468.739 555.459 468.441 555.194 467.769C554.929 467.097 555.218 466.326 555.869 466.052L586.743 452.642C587.394 452.368 588.142 452.667 588.407 453.338C588.672 454.01 588.383 454.757 587.732 455.055Z" fill="#263238"/>
<path d="M580.472 464.435L559.005 473.74C558.354 474.014 557.606 473.715 557.341 473.043C557.075 472.372 557.365 471.6 558.016 471.327L579.483 462.022C580.134 461.748 580.882 462.046 581.147 462.718C581.412 463.365 581.123 464.136 580.472 464.435Z" fill="#263238"/>
<path d="M561.345 502.277L553.867 505.512C553.096 505.835 552.203 505.462 551.89 504.691L548.754 496.978C548.44 496.182 548.802 495.261 549.55 494.938L557.027 491.703C557.799 491.38 558.691 491.753 559.005 492.524L562.141 500.237C562.454 501.033 562.092 501.954 561.345 502.277Z" fill="#757575" stroke="#263238" stroke-miterlimit="10" stroke-linecap="round" stroke-linejoin="round"/>
<path d="M597.38 478.741L566.506 492.151C565.855 492.425 565.107 492.126 564.842 491.455C564.577 490.783 564.866 490.012 565.518 489.738L596.391 476.328C597.042 476.054 597.79 476.352 598.055 477.024C598.345 477.671 598.031 478.442 597.38 478.741Z" fill="#263238"/>
<path d="M590.12 488.096L568.653 497.401C568.002 497.675 567.254 497.376 566.989 496.704C566.724 496.033 567.013 495.261 567.664 494.988L589.131 485.682C589.782 485.409 590.53 485.707 590.795 486.379C591.085 487.051 590.771 487.822 590.12 488.096Z" fill="#263238"/>
</g>
<mask id="mask18_4_8" style="mask-type:luminance" maskUnits="userSpaceOnUse" x="152" y="167" width="568" height="670">
<path d="M719.668 680.816L395.11 821.712L361.655 836.242L298.606 681.712L152.197 322.868L510.21 167.442L719.668 680.816Z" fill="white"/>
</mask>
<g mask="url(#mask18_4_8)">
<path d="M637.998 576.37L387.174 685.245C385.727 685.867 385.052 687.609 385.655 689.101C386.258 690.594 387.946 691.291 389.393 690.669L640.217 581.794C641.664 581.172 642.34 579.43 641.737 577.937C641.109 576.445 639.445 575.723 637.998 576.37Z" fill="#263238"/>
<path d="M645.958 595.851L354.299 722.465C352.851 723.087 352.176 724.829 352.779 726.322C353.382 727.815 355.07 728.511 356.518 727.889L648.177 601.275C649.624 600.653 650.299 598.911 649.696 597.419C649.069 595.926 647.405 595.204 645.958 595.851Z" fill="#263238"/>
<path d="M653.893 615.332L362.234 741.946C360.787 742.568 360.112 744.31 360.715 745.803C361.318 747.296 363.006 747.992 364.453 747.37L656.112 620.756C657.559 620.134 658.235 618.392 657.632 616.9C657.029 615.407 655.34 614.685 653.893 615.332Z" fill="#263238"/>
<path d="M661.853 634.813L370.194 761.428C368.746 762.05 368.071 763.791 368.674 765.284C369.277 766.777 370.965 767.473 372.413 766.851L664.072 640.237C665.519 639.615 666.194 637.873 665.591 636.381C664.964 634.888 663.3 634.166 661.853 634.813Z" fill="#263238"/>
<path d="M547.283 707.463L378.129 780.884C376.682 781.506 376.007 783.247 376.61 784.74C377.213 786.233 378.901 786.93 380.348 786.308L549.502 712.887C550.949 712.265 551.624 710.523 551.021 709.03C550.394 707.537 548.73 706.841 547.283 707.463Z" fill="#263238"/>
</g>
<mask id="mask19_4_8" style="mask-type:luminance" maskUnits="userSpaceOnUse" x="152" y="167" width="568" height="670">
<path d="M719.668 680.816L395.11 821.712L361.655 836.242L298.606 681.712L152.197 322.868L510.21 167.442L719.668 680.816Z" fill="white"/>
</mask>
<g mask="url(#mask19_4_8)">
<path d="M454.131 327.67C454.131 327.67 457.388 354.067 447.86 358.222C439.153 362.004 427.696 347.822 417.686 352.176C407.676 356.53 415.563 393.95 405.915 398.155C396.267 402.334 384.642 386.959 376.32 390.566C367.999 394.174 373.04 413.431 364.453 417.163C357.362 420.248 347.232 404.922 339.127 401.563C337.415 400.842 335.775 400.667 334.303 401.314C325.813 404.997 330.034 445.228 322.701 448.387C320.265 449.457 318.143 449.631 316.189 449.482C313.295 449.283 310.738 448.387 307.916 448.686C306.927 448.785 305.914 449.034 304.829 449.507C298.581 452.219 299.426 473.392 293.709 475.88C287.993 478.368 282.349 475.283 276.246 477.945C270.144 480.607 270.24 491.604 261.147 495.56L265.006 504.989L487.176 408.554" fill="#BFBFBF"/>
<path d="M454.131 327.67C454.131 327.67 457.388 354.067 447.86 358.222C439.153 362.004 427.696 347.822 417.686 352.176C407.676 356.53 415.563 393.95 405.915 398.155C396.267 402.334 384.642 386.959 376.32 390.566C367.999 394.174 373.04 413.431 364.453 417.163C357.362 420.248 347.232 404.922 339.127 401.563C337.415 400.842 335.775 400.667 334.303 401.314C325.813 404.997 330.034 445.228 322.701 448.387C320.265 449.457 318.143 449.631 316.189 449.482C313.295 449.283 310.738 448.387 307.916 448.686C306.927 448.785 305.914 449.034 304.829 449.507C298.581 452.219 299.426 473.392 293.709 475.88C287.993 478.368 282.349 475.283 276.246 477.945C270.144 480.607 270.24 491.604 261.147 495.56L265.006 504.989L487.176 408.554" stroke="#263238" stroke-miterlimit="10"/>
<path d="M468.483 362.875C468.483 362.875 470.509 375.663 465.612 377.803C461.536 379.569 459.028 377.106 454.734 376.957C453.022 376.882 451.02 377.181 448.511 378.275C444.58 379.967 443.639 385.441 442.94 391.337C442.071 398.578 441.637 406.415 436.5 408.654C432.906 410.221 429.022 409.301 425.019 407.858C418.651 405.569 411.921 401.936 405.457 404.748C402.322 406.116 400.127 409.624 398.414 413.978C394.386 424.254 393.132 439.132 388.766 441.023C382.567 443.71 371.207 432.713 365.707 435.101C360.208 437.49 362.451 447.367 357.989 449.308C353.527 451.249 350.97 445.526 343.107 448.935C335.244 452.343 339.079 464.335 327.984 469.137C316.889 473.939 312.04 465.107 301.307 469.759C290.574 474.412 292.527 482.796 284.978 486.081C277.428 489.365 274.22 483.667 268.817 486.006C263.559 488.295 262.136 497.177 262.04 497.749L265.006 505.014L487.176 408.579" fill="#92E3A9"/>
<path d="M468.483 362.875C468.483 362.875 470.509 375.663 465.612 377.803C461.536 379.569 459.028 377.106 454.734 376.957C453.022 376.882 451.02 377.181 448.511 378.275C444.58 379.967 443.639 385.441 442.94 391.337C442.071 398.578 441.637 406.415 436.5 408.654C432.906 410.221 429.022 409.301 425.019 407.858C418.651 405.569 411.921 401.936 405.457 404.748C402.322 406.116 400.127 409.624 398.414 413.978C394.386 424.254 393.132 439.132 388.766 441.023C382.567 443.71 371.207 432.713 365.707 435.101C360.208 437.49 362.451 447.367 357.989 449.308C353.527 451.249 350.97 445.526 343.107 448.935C335.244 452.343 339.079 464.335 327.984 469.137C316.889 473.939 312.04 465.107 301.307 469.759C290.574 474.412 292.527 482.796 284.978 486.081C277.428 489.365 274.22 483.667 268.817 486.006C263.559 488.295 262.136 497.177 262.04 497.749L265.006 505.014L487.176 408.579" stroke="#263238" stroke-miterlimit="10"/>
<path d="M219.974 394.746L264.958 504.989L497.571 404.026" stroke="#263238" stroke-miterlimit="10" stroke-linecap="round" stroke-linejoin="round"/>
<path d="M424.271 448.487L346.99 482.025C345.543 482.647 344.868 484.389 345.471 485.881C346.074 487.374 347.762 488.071 349.209 487.449L426.49 453.911C427.937 453.289 428.612 451.547 428.009 450.054C427.406 448.561 425.742 447.865 424.271 448.487Z" fill="#263238"/>
<path d="M486.597 319.111L479.12 322.345C478.348 322.669 477.455 322.295 477.142 321.524L474.006 313.811C473.693 313.015 474.054 312.095 474.802 311.771L482.279 308.537C483.051 308.213 483.944 308.587 484.257 309.358L487.393 317.071C487.73 317.867 487.369 318.763 486.597 319.111Z" fill="#BFBFBF" stroke="#263238" stroke-miterlimit="10"/>
<path d="M522.656 295.549L491.783 308.96C491.131 309.233 490.384 308.935 490.118 308.263C489.853 307.591 490.142 306.82 490.794 306.546L521.667 293.136C522.318 292.862 523.066 293.161 523.332 293.833C523.621 294.505 523.307 295.276 522.656 295.549Z" fill="#263238"/>
<path d="M515.396 304.929L493.929 314.234C493.278 314.508 492.53 314.209 492.265 313.538C492 312.866 492.289 312.095 492.94 311.821L514.407 302.516C515.058 302.242 515.806 302.541 516.071 303.213C516.337 303.859 516.047 304.631 515.396 304.929Z" fill="#263238"/>
<path d="M496.269 342.797L488.792 346.031C488.02 346.354 487.127 345.981 486.814 345.21L483.678 337.497C483.365 336.701 483.727 335.78 484.474 335.457L491.951 332.223C492.723 331.899 493.616 332.272 493.929 333.044L497.065 340.756C497.378 341.528 497.017 342.448 496.269 342.797Z" fill="#92E3A9" stroke="#263238" stroke-miterlimit="10"/>
<path d="M532.304 319.235L501.431 332.646C500.779 332.919 500.032 332.621 499.766 331.949C499.501 331.277 499.791 330.506 500.442 330.232L531.315 316.822C531.967 316.548 532.714 316.847 532.98 317.519C533.245 318.19 532.956 318.937 532.304 319.235Z" fill="#263238"/>
<path d="M525.044 328.615L503.577 337.92C502.926 338.194 502.178 337.895 501.913 337.223C501.648 336.552 501.937 335.78 502.589 335.507L524.055 326.202C524.707 325.928 525.454 326.227 525.72 326.898C526.009 327.545 525.695 328.316 525.044 328.615Z" fill="#263238"/>
</g>
<mask id="mask20_4_8" style="mask-type:luminance" maskUnits="userSpaceOnUse" x="152" y="167" width="568" height="670">
<path d="M719.668 680.816L395.11 821.712L361.655 836.242L298.606 681.712L152.197 322.868L510.21 167.442L719.668 680.816Z" fill="white"/>
</mask>
<g mask="url(#mask20_4_8)">
<path opacity="0.2" d="M395.11 821.712L361.655 836.242L298.606 681.712C302.561 677.831 307.192 671.188 309.146 660.39C312.909 639.69 310.256 573.136 360.498 566.269C410.715 559.402 368.361 675.94 370.676 698.158C372.799 718.385 401.429 777.177 395.11 821.712Z" fill="black" fill-opacity="0.7"/>
</g>
<path d="M719.668 680.816L395.11 821.712L361.655 836.242L298.606 681.712L152.197 322.868L510.21 167.442L719.668 680.816Z" stroke="#263238" stroke-miterlimit="10" stroke-linecap="round" stroke-linejoin="round"/>
<path d="M374.897 706.592C380.517 686.737 402.515 622.97 399.644 594.781C399.379 592.243 398.848 589.954 398.101 587.914C390.382 566.866 358.833 568.906 346.701 586.347C333.387 605.529 322.533 640.063 321.592 661.061C321.085 672.68 316.261 683.329 312.04 690.569C312.016 690.619 312.016 690.644 311.992 690.669C308.591 696.49 305.6 700.023 305.6 700.023L233.602 523.823C233.602 523.823 221.976 533.526 214.764 545.519C211.846 550.32 209.675 555.545 209.241 560.621C207.77 577.962 188.715 649.268 180.779 679.373C180.635 680.02 180.442 680.617 180.297 681.214C172.675 710.125 192.791 817.507 187.051 848.706C181.286 879.881 177.716 879.209 176.896 901.352C176.293 917.524 153.861 966.687 128.728 1017.17C114.329 1046.1 99.0126 1075.44 86.3978 1099.2L270.482 1091.31C273.666 1068.25 276.946 1043.89 279.937 1020.33C281.167 1010.63 283.169 1000.65 285.436 991.194C285.436 991.194 285.436 991.194 285.436 991.169C289.488 974.251 294.457 958.95 297.448 949.993C302.151 936.01 307.048 909.936 307.048 909.936C328.466 886.549 356.542 849.826 364.67 824.921C364.694 824.871 364.719 824.797 364.719 824.747C366.769 818.452 367.516 812.929 366.552 808.6C365.732 805.017 365.297 800.364 365.104 795.015C365.129 794.99 365.129 794.99 365.104 794.965C364.212 767.996 370.17 723.137 374.897 706.592Z" fill="white"/>
<path opacity="0.4" d="M312.016 690.644C306.3 702.462 299.426 713.932 295.036 727.193C290.646 740.429 285.943 742.32 273.038 752.67C260.158 763.045 250.752 745.952 250.752 745.952C250.752 745.952 267.804 727.69 262.136 717.514C256.444 707.338 235.267 682.035 236.521 668.078C237.751 654.12 223.665 622.821 223.665 622.821C223.665 622.821 255.817 603.365 249.57 580.625C246.169 568.16 229.333 554.923 214.813 545.494C222.025 533.502 233.65 523.799 233.65 523.799L305.649 699.999C305.625 699.999 308.615 696.441 312.016 690.644Z" fill="#92E3A9"/>
<path opacity="0.4" d="M195.276 798.723C195.71 800.215 206.178 835.868 197.35 850.722C188.305 865.899 179.453 885.28 183.77 905.433C187.219 921.555 158.275 979.774 128.753 1017.14C153.886 966.663 176.317 917.5 176.92 901.328C177.764 879.185 181.31 879.856 187.075 848.682C192.815 817.482 172.723 710.1 180.321 681.19C180.466 680.592 180.659 679.995 180.804 679.348C186.423 712.115 199.521 777.376 203.115 798.349C207.697 825.046 195.758 799.768 195.276 798.723Z" fill="#92E3A9"/>
<path opacity="0.4" d="M261.557 1013.86C282.952 918.843 354.95 845.995 364.694 824.896C356.566 849.776 328.49 886.524 307.072 909.911C307.072 909.911 302.175 935.961 297.472 949.968C294.457 958.925 289.512 974.226 285.46 991.145C285.46 991.169 285.46 991.169 285.46 991.169C264.548 1016.57 261.557 1013.86 261.557 1013.86Z" fill="#92E3A9"/>
<path opacity="0.4" d="M374.897 706.592C370.17 723.137 364.188 767.996 365.129 794.941C361.342 778.022 354.058 756.526 352.852 726.595C350.801 675.84 378.684 694.052 368.964 669.048C359.243 644.069 331.529 676.089 345.181 623.169C355.143 584.531 383.532 584.879 398.101 587.889C398.848 589.93 399.379 592.219 399.644 594.756C402.539 622.945 380.541 686.713 374.897 706.592Z" fill="#92E3A9"/>
<path d="M114.425 1046.78C137.508 1003.26 159.964 958.502 176.124 910.235C178.054 903.293 175.473 894.262 177.427 887.32C199.304 824.623 174.484 759.362 178.56 695.172C181.985 669.869 189.824 644.367 197.663 618.89C201.354 600.429 202.753 579.804 208.638 561.243C214.716 547.26 220.722 530.989 233.65 523.823C258.253 581.993 282.783 640.386 305.649 700.024C315.972 693.853 317.636 680.07 319.397 668.55C324.945 640.859 330.565 615.481 340.719 592.169C351.042 573.434 377.333 565.448 393.47 580.749C398.077 585.128 400.561 591.87 400.85 598.737C397.715 630.882 387.922 663.326 378.057 693.48C374.174 707.363 370.218 718.982 368.554 732.766C368.747 737.344 368.819 739.608 369.012 744.186C363.295 767.299 368.554 787.651 367.251 810.59C362.258 851.966 330.179 880.802 307.024 911.504C301.307 934.617 295.591 957.731 287.655 980.944C277.959 1015.68 274.92 1050.11 271.615 1083.57" stroke="#263238" stroke-miterlimit="10" stroke-linecap="round" stroke-linejoin="round"/>
<path d="M305.649 699.999C305.649 699.999 298.075 715.001 295.06 727.193C292.045 739.384 276.777 737.617 268.89 745.206" stroke="#263238" stroke-miterlimit="10" stroke-linecap="round" stroke-linejoin="round"/>
<path d="M248.05 678.527C248.05 678.527 268.817 686.091 280.901 695.819C292.986 705.547 301.934 707.936 301.934 707.936" stroke="#263238" stroke-miterlimit="10" stroke-linecap="round" stroke-linejoin="round"/>
<path d="M234.808 625.409C234.808 625.409 251.572 630.26 263.993 624.165C263.993 624.165 264.91 613.566 267.153 605.778" stroke="#263238" stroke-miterlimit="10" stroke-linecap="round" stroke-linejoin="round"/>
<path d="M267.997 626.677C267.997 626.677 268.166 629.091 276.729 629.19" stroke="#263238" stroke-miterlimit="10" stroke-linecap="round" stroke-linejoin="round"/>
<path d="M307.072 909.911C307.072 909.911 290.718 925.213 280.733 952.78" stroke="#263238" stroke-miterlimit="10" stroke-linecap="round" stroke-linejoin="round"/>
<path d="M179.356 686.489C178.609 701.392 195.565 754.362 200.727 780.66C205.888 806.983 207.794 825.593 207.794 825.593" stroke="#263238" stroke-miterlimit="10" stroke-linecap="round" stroke-linejoin="round"/>
</svg>
