<svg width="223" height="19" viewBox="0 0 223 19" fill="none" xmlns="http://www.w3.org/2000/svg">
<path d="M6.584 18.168C5.352 18.168 4.248 17.968 3.272 17.568C2.296 17.168 1.512 16.576 0.92 15.792C0.344 15.008 0.0400001 14.064 0.00800008 12.96H4.376C4.44 13.584 4.656 14.064 5.024 14.4C5.392 14.72 5.872 14.88 6.464 14.88C7.072 14.88 7.552 14.744 7.904 14.472C8.256 14.184 8.432 13.792 8.432 13.296C8.432 12.88 8.288 12.536 8 12.264C7.728 11.992 7.384 11.768 6.968 11.592C6.568 11.416 5.992 11.216 5.24 10.992C4.152 10.656 3.264 10.32 2.576 9.984C1.888 9.648 1.296 9.152 0.8 8.496C0.304 7.84 0.0560001 6.984 0.0560001 5.928C0.0560001 4.36 0.624 3.136 1.76 2.256C2.896 1.36 4.376 0.912 6.2 0.912C8.056 0.912 9.552 1.36 10.688 2.256C11.824 3.136 12.432 4.368 12.512 5.952H8.072C8.04 5.408 7.84 4.984 7.472 4.68C7.104 4.36 6.632 4.2 6.056 4.2C5.56 4.2 5.16 4.336 4.856 4.608C4.552 4.864 4.4 5.24 4.4 5.736C4.4 6.28 4.656 6.704 5.168 7.008C5.68 7.312 6.48 7.64 7.568 7.992C8.656 8.36 9.536 8.712 10.208 9.048C10.896 9.384 11.488 9.872 11.984 10.512C12.48 11.152 12.728 11.976 12.728 12.984C12.728 13.944 12.48 14.816 11.984 15.6C11.504 16.384 10.8 17.008 9.872 17.472C8.944 17.936 7.848 18.168 6.584 18.168ZM29.8456 1.152V18H25.7416V11.064H19.3576V18H15.2536V1.152H19.3576V7.752H25.7416V1.152H29.8456ZM40.7763 18.168C39.1923 18.168 37.7363 17.8 36.4083 17.064C35.0963 16.328 34.0483 15.304 33.2643 13.992C32.4963 12.664 32.1123 11.176 32.1123 9.528C32.1123 7.88 32.4963 6.4 33.2643 5.088C34.0483 3.776 35.0963 2.752 36.4083 2.016C37.7363 1.28 39.1923 0.912 40.7763 0.912C42.3603 0.912 43.8083 1.28 45.1203 2.016C46.4483 2.752 47.4883 3.776 48.2403 5.088C49.0083 6.4 49.3923 7.88 49.3923 9.528C49.3923 11.176 49.0083 12.664 48.2403 13.992C47.4723 15.304 46.4323 16.328 45.1203 17.064C43.8083 17.8 42.3603 18.168 40.7763 18.168ZM40.7763 14.424C42.1203 14.424 43.1923 13.976 43.9923 13.08C44.8083 12.184 45.2163 11 45.2163 9.528C45.2163 8.04 44.8083 6.856 43.9923 5.976C43.1923 5.08 42.1203 4.632 40.7763 4.632C39.4163 4.632 38.3283 5.072 37.5123 5.952C36.7123 6.832 36.3123 8.024 36.3123 9.528C36.3123 11.016 36.7123 12.208 37.5123 13.104C38.3283 13.984 39.4163 14.424 40.7763 14.424ZM64.5155 6.576C64.5155 7.552 64.2915 8.448 63.8435 9.264C63.3955 10.064 62.7075 10.712 61.7795 11.208C60.8515 11.704 59.6995 11.952 58.3235 11.952H55.7795V18H51.6755V1.152H58.3235C59.6675 1.152 60.8035 1.384 61.7315 1.848C62.6595 2.312 63.3555 2.952 63.8195 3.768C64.2835 4.584 64.5155 5.52 64.5155 6.576ZM58.0115 8.688C58.7955 8.688 59.3795 8.504 59.7635 8.136C60.1475 7.768 60.3395 7.248 60.3395 6.576C60.3395 5.904 60.1475 5.384 59.7635 5.016C59.3795 4.648 58.7955 4.464 58.0115 4.464H55.7795V8.688H58.0115ZM76.4201 18L70.7561 10.56V18H66.6521V1.152H70.7561V8.544L76.3721 1.152H81.1961L74.6681 9.408L81.4361 18H76.4201ZM87.4904 4.44V7.848H92.9864V11.016H87.4904V14.712H93.7064V18H83.3864V1.152H93.7064V4.44H87.4904ZM100.475 4.44V7.848H105.971V11.016H100.475V14.712H106.691V18H96.3708V1.152H106.691V4.44H100.475ZM122.195 6.576C122.195 7.552 121.971 8.448 121.523 9.264C121.075 10.064 120.387 10.712 119.459 11.208C118.531 11.704 117.379 11.952 116.003 11.952H113.459V18H109.355V1.152H116.003C117.347 1.152 118.483 1.384 119.411 1.848C120.339 2.312 121.035 2.952 121.499 3.768C121.963 4.584 122.195 5.52 122.195 6.576ZM115.691 8.688C116.475 8.688 117.059 8.504 117.443 8.136C117.827 7.768 118.019 7.248 118.019 6.576C118.019 5.904 117.827 5.384 117.443 5.016C117.059 4.648 116.475 4.464 115.691 4.464H113.459V8.688H115.691ZM128.436 4.44V7.848H133.932V11.016H128.436V14.712H134.652V18H124.332V1.152H134.652V4.44H128.436ZM145.908 18L142.404 11.64H141.42V18H137.316V1.152H144.204C145.532 1.152 146.66 1.384 147.588 1.848C148.532 2.312 149.236 2.952 149.7 3.768C150.164 4.568 150.396 5.464 150.396 6.456C150.396 7.576 150.076 8.576 149.436 9.456C148.812 10.336 147.884 10.96 146.652 11.328L150.54 18H145.908ZM141.42 8.736H143.964C144.716 8.736 145.276 8.552 145.644 8.184C146.028 7.816 146.22 7.296 146.22 6.624C146.22 5.984 146.028 5.48 145.644 5.112C145.276 4.744 144.716 4.56 143.964 4.56H141.42V8.736Z" fill="black"/>
<path d="M163.292 7.872V11.28H152.732V7.872H163.292ZM179.734 6.576C179.734 7.552 179.51 8.448 179.062 9.264C178.614 10.064 177.926 10.712 176.998 11.208C176.07 11.704 174.918 11.952 173.542 11.952H170.998V18H166.894V1.152H173.542C174.886 1.152 176.022 1.384 176.95 1.848C177.878 2.312 178.574 2.952 179.038 3.768C179.502 4.584 179.734 5.52 179.734 6.576ZM173.23 8.688C174.014 8.688 174.598 8.504 174.982 8.136C175.366 7.768 175.558 7.248 175.558 6.576C175.558 5.904 175.366 5.384 174.982 5.016C174.598 4.648 174.014 4.464 173.23 4.464H170.998V8.688H173.23ZM185.975 14.832H191.351V18H181.871V1.152H185.975V14.832ZM197.34 1.152V11.232C197.34 12.24 197.588 13.016 198.084 13.56C198.58 14.104 199.308 14.376 200.268 14.376C201.228 14.376 201.964 14.104 202.476 13.56C202.988 13.016 203.244 12.24 203.244 11.232V1.152H207.348V11.208C207.348 12.712 207.028 13.984 206.388 15.024C205.748 16.064 204.884 16.848 203.796 17.376C202.724 17.904 201.524 18.168 200.196 18.168C198.868 18.168 197.676 17.912 196.62 17.4C195.58 16.872 194.756 16.088 194.148 15.048C193.54 13.992 193.236 12.712 193.236 11.208V1.152H197.34ZM216.326 18.168C215.094 18.168 213.99 17.968 213.014 17.568C212.038 17.168 211.254 16.576 210.662 15.792C210.086 15.008 209.782 14.064 209.75 12.96H214.118C214.182 13.584 214.398 14.064 214.766 14.4C215.134 14.72 215.614 14.88 216.206 14.88C216.814 14.88 217.294 14.744 217.646 14.472C217.998 14.184 218.174 13.792 218.174 13.296C218.174 12.88 218.03 12.536 217.742 12.264C217.47 11.992 217.126 11.768 216.71 11.592C216.31 11.416 215.734 11.216 214.982 10.992C213.894 10.656 213.006 10.32 212.318 9.984C211.63 9.648 211.038 9.152 210.542 8.496C210.046 7.84 209.798 6.984 209.798 5.928C209.798 4.36 210.366 3.136 211.502 2.256C212.638 1.36 214.118 0.912 215.942 0.912C217.798 0.912 219.294 1.36 220.43 2.256C221.566 3.136 222.174 4.368 222.254 5.952H217.814C217.782 5.408 217.582 4.984 217.214 4.68C216.846 4.36 216.374 4.2 215.798 4.2C215.302 4.2 214.902 4.336 214.598 4.608C214.294 4.864 214.142 5.24 214.142 5.736C214.142 6.28 214.398 6.704 214.91 7.008C215.422 7.312 216.222 7.64 217.31 7.992C218.398 8.36 219.278 8.712 219.95 9.048C220.638 9.384 221.23 9.872 221.726 10.512C222.222 11.152 222.47 11.976 222.47 12.984C222.47 13.944 222.222 14.816 221.726 15.6C221.246 16.384 220.542 17.008 219.614 17.472C218.686 17.936 217.59 18.168 216.326 18.168Z" fill="#FE5100"/>
</svg>
